<svg xmlns="http://www.w3.org/2000/svg" width="253.06" height="35" viewBox="0 0 253.06 35">
    <rect class="svg__rect" x="0" y="0" width="80.38" height="35" fill="#D53838"/>
    <rect class="svg__rect" x="78.38" y="0" width="174.68" height="35" fill="#974141"/>
    <path class="svg__text"
          d="M15.60 22L13.63 13.47L15.10 13.47L16.43 19.88L18.06 13.47L19.30 13.47L20.91 19.89L22.22 13.47L23.69 13.47L21.72 22L20.31 22L18.68 15.77L17.02 22L15.60 22ZM27.49 18.00L27.49 18.00L27.49 17.52Q27.49 16.28 27.94 15.32Q28.38 14.37 29.18 13.86Q29.99 13.35 31.03 13.35Q32.08 13.35 32.88 13.85Q33.69 14.35 34.13 15.29Q34.57 16.23 34.57 17.48L34.57 17.48L34.57 17.96Q34.57 19.21 34.14 20.16Q33.71 21.10 32.90 21.61Q32.09 22.12 31.05 22.12L31.05 22.12Q30.01 22.12 29.20 21.61Q28.39 21.10 27.94 20.17Q27.50 19.23 27.49 18.00ZM28.98 17.46L28.98 17.96Q28.98 19.36 29.52 20.13Q30.07 20.90 31.05 20.90L31.05 20.90Q32.03 20.90 32.56 20.15Q33.09 19.40 33.09 17.96L33.09 17.96L33.09 17.51Q33.09 16.09 32.55 15.34Q32.02 14.58 31.03 14.58L31.03 14.58Q30.07 14.58 29.53 15.33Q28.99 16.09 28.98 17.46L28.98 17.46ZM40.52 22L39.04 22L39.04 13.47L42.04 13.47Q43.51 13.47 44.32 14.13Q45.12 14.79 45.12 16.05L45.12 16.05Q45.12 16.90 44.71 17.48Q44.29 18.06 43.56 18.37L43.56 18.37L45.47 21.92L45.47 22L43.88 22L42.17 18.71L40.52 18.71L40.52 22ZM40.52 14.66L40.52 17.52L42.04 17.52Q42.79 17.52 43.22 17.15Q43.64 16.77 43.64 16.11L43.64 16.11Q43.64 15.43 43.25 15.05Q42.86 14.68 42.08 14.66L42.08 14.66L40.52 14.66ZM51.00 22L49.51 22L49.51 13.47L51.00 13.47L51.00 17.47L51.82 16.46L54.31 13.47L56.11 13.47L52.94 17.25L56.29 22L54.53 22L51.96 18.31L51.00 19.34L51.00 22ZM59.63 19.42L59.63 19.42L61.12 19.42Q61.12 20.15 61.60 20.55Q62.08 20.95 62.97 20.95L62.97 20.95Q63.75 20.95 64.14 20.63Q64.53 20.32 64.53 19.80L64.53 19.80Q64.53 19.24 64.13 18.94Q63.73 18.63 62.70 18.32Q61.67 18.01 61.06 17.63L61.06 17.63Q59.90 16.90 59.90 15.72L59.90 15.72Q59.90 14.69 60.74 14.02Q61.58 13.35 62.92 13.35L62.92 13.35Q63.81 13.35 64.51 13.68Q65.21 14.01 65.60 14.61Q66.00 15.22 66.00 15.96L66.00 15.96L64.53 15.96Q64.53 15.29 64.11 14.91Q63.69 14.54 62.91 14.54L62.91 14.54Q62.18 14.54 61.78 14.85Q61.38 15.16 61.38 15.71L61.38 15.71Q61.38 16.18 61.81 16.50Q62.25 16.81 63.24 17.10Q64.24 17.40 64.84 17.78Q65.45 18.16 65.73 18.65Q66.01 19.13 66.01 19.79L66.01 19.79Q66.01 20.86 65.19 21.49Q64.37 22.12 62.97 22.12L62.97 22.12Q62.05 22.12 61.27 21.77Q60.49 21.43 60.06 20.83Q59.63 20.22 59.63 19.42Z"
          fill="#FFFFFF"/>
    <path class="svg__text"
          d="M92.14 17.80L92.14 17.80Q92.14 16.55 92.74 15.55Q93.35 14.56 94.41 14.00Q95.47 13.43 96.80 13.43L96.80 13.43Q98.13 13.43 99.20 14.00Q100.26 14.56 100.87 15.55Q101.47 16.55 101.47 17.80L101.47 17.80Q101.47 19.05 100.87 20.04Q100.26 21.04 99.20 21.60Q98.14 22.17 96.80 22.17L96.80 22.17Q95.47 22.17 94.41 21.60Q93.35 21.04 92.74 20.04Q92.14 19.05 92.14 17.80ZM94.54 17.80L94.54 17.80Q94.54 18.51 94.84 19.05Q95.14 19.60 95.66 19.90Q96.17 20.20 96.80 20.20L96.80 20.20Q97.44 20.20 97.96 19.90Q98.47 19.60 98.77 19.05Q99.07 18.51 99.07 17.80L99.07 17.80Q99.07 17.09 98.77 16.54Q98.47 16 97.96 15.70Q97.44 15.40 96.80 15.40L96.80 15.40Q96.17 15.40 95.65 15.70Q95.14 16 94.84 16.54Q94.54 17.09 94.54 17.80ZM108.53 22L106.20 22L106.20 13.60L108.16 13.60L111.87 18.07L111.87 13.60L114.19 13.60L114.19 22L112.24 22L108.53 17.52L108.53 22ZM128.53 22L126.33 22L126.33 13.60L128.29 13.60L131.24 18.45L134.12 13.60L136.07 13.60L136.10 22L133.92 22L133.89 17.55L131.73 21.17L130.68 21.17L128.53 17.67L128.53 22ZM143.39 18.95L140.18 13.60L142.69 13.60L144.68 16.94L146.67 13.60L148.98 13.60L145.76 18.99L145.76 22L143.39 22L143.39 18.95ZM162.23 22L160.03 22L160.03 13.60L161.99 13.60L164.94 18.45L167.83 13.60L169.78 13.60L169.80 22L167.62 22L167.60 17.55L165.44 21.17L164.38 21.17L162.23 17.67L162.23 22ZM176.38 22L173.95 22L177.66 13.60L180.01 13.60L183.72 22L181.26 22L180.59 20.37L177.04 20.37L176.38 22ZM178.82 15.93L177.73 18.61L179.90 18.61L178.82 15.93ZM187.45 17.80L187.45 17.80Q187.45 16.54 188.05 15.54Q188.64 14.55 189.70 13.99Q190.75 13.43 192.07 13.43L192.07 13.43Q193.22 13.43 194.14 13.84Q195.07 14.25 195.68 15.02L195.68 15.02L194.17 16.39Q193.35 15.40 192.19 15.40L192.19 15.40Q191.50 15.40 190.97 15.70Q190.44 16 190.14 16.54Q189.85 17.09 189.85 17.80L189.85 17.80Q189.85 18.51 190.14 19.05Q190.44 19.60 190.97 19.90Q191.50 20.20 192.19 20.20L192.19 20.20Q193.35 20.20 194.17 19.22L194.17 19.22L195.68 20.58Q195.07 21.35 194.15 21.76Q193.22 22.17 192.07 22.17L192.07 22.17Q190.75 22.17 189.70 21.61Q188.64 21.05 188.05 20.05Q187.45 19.06 187.45 17.80ZM202.60 22L200.22 22L200.22 13.60L202.60 13.60L202.60 16.76L205.84 16.76L205.84 13.60L208.21 13.60L208.21 22L205.84 22L205.84 18.72L202.60 18.72L202.60 22ZM215.75 22L213.37 22L213.37 13.60L215.75 13.60L215.75 22ZM223.26 22L220.92 22L220.92 13.60L222.88 13.60L226.59 18.07L226.59 13.60L228.92 13.60L228.92 22L226.96 22L223.26 17.52L223.26 22ZM240.82 22L234.08 22L234.08 13.60L240.67 13.60L240.67 15.44L236.43 15.44L236.43 16.85L240.17 16.85L240.17 18.63L236.43 18.63L236.43 20.17L240.82 20.17L240.82 22Z"
          fill="#FFFFFF" x="91.38"/>
</svg>